<svg width="40" height="40" viewBox="0 0 40 40" fill="none" xmlns="http://www.w3.org/2000/svg">
<rect width="40" height="40" rx="8" fill="#FFF2D7"/>
<path d="M8 15.8751V15.1251C8 14.5038 8.50367 14.0001 9.125 14.0001H26V11.7501C26 10.7486 27.214 10.2482 27.9205 10.9546L31.6705 14.7046C32.1098 15.144 32.1098 15.8563 31.6705 16.2956L27.9205 20.0456C27.2167 20.7493 26 20.2559 26 19.2501V17.0001H9.125C8.50367 17.0001 8 16.4965 8 15.8751ZM30.875 23.0001H14V20.7501C14 19.7511 12.7877 19.2464 12.0795 19.9546L8.32948 23.7046C7.89017 24.144 7.89017 24.8563 8.32948 25.2956L12.0795 29.0456C12.7839 29.75 14 29.255 14 28.2501V26.0001H30.875C31.4963 26.0001 32 25.4965 32 24.8751V24.1251C32 23.5038 31.4963 23.0001 30.875 23.0001Z" fill="#FFC44A"/>
</svg>
